<svg xmlns="http://www.w3.org/2000/svg" xmlns:xlink="http://www.w3.org/1999/xlink" width="1439" height="600" viewBox="0 0 1439 600">
    <defs>
        <linearGradient id="a" x1="29.371%" x2="72.328%" y1="11.983%" y2="87.488%">
            <stop offset="0%" stop-color="#4A90E2"/>
            <stop offset="100%" stop-color="#1D4371"/>
        </linearGradient>
        <linearGradient id="b" x1="69.939%" x2="28.807%" y1="87.293%" y2="9.735%">
            <stop offset="0%" stop-color="#1D4371"/>
            <stop offset="100%" stop-color="#4A90E2"/>
        </linearGradient>
        <path id="d" d="M1385.5 197l34.208 19.75v39.5L1385.5 276l-34.208-19.75v-39.5z"/>
        <filter id="c" width="120.2%" height="133.8%" x="-7.6%" y="-14.3%" filterUnits="objectBoundingBox">
            <feMorphology in="SourceAlpha" operator="dilate" radius=".287" result="shadowSpreadOuter1"/>
            <feOffset dx="2" dy="2" in="shadowSpreadOuter1" result="shadowOffsetOuter1"/>
            <feGaussianBlur in="shadowOffsetOuter1" result="shadowBlurOuter1" stdDeviation="4"/>
            <feComposite in="shadowBlurOuter1" in2="SourceAlpha" operator="out" result="shadowBlurOuter1"/>
            <feColorMatrix in="shadowBlurOuter1" values="0 0 0 0 0 0 0 0 0 0 0 0 0 0 0 0 0 0 0.5 0"/>
        </filter>
    </defs>
    <g fill="none" fill-rule="evenodd">
        <path fill="url(#a)" d="M1501.354 363.354l62.354 36v72l-62.354 36-62.354-36v-72z" opacity=".605" transform="rotate(30 1525.665 264.84)"/>
        <path fill="url(#b)" d="M801.354 93.354l62.354 36v72l-62.354 36-62.354-36v-72z" opacity=".602" transform="rotate(30 825.665 -5.16)"/>
        <path fill="url(#b)" d="M98.354 226.354l62.354 36v72l-62.354 36-62.354-36v-72z" opacity=".602" transform="rotate(30 122.665 127.84)"/>
        <path stroke="#1D4371" d="M170.292 135.146l36 62.354-36 62.354h-72l-36-62.354 36-62.354z"/>
        <path stroke="#4A90E2" d="M169.292 404.146l36 62.354-36 62.354h-72l-36-62.354 36-62.354z"/>
        <path stroke="#1D4371" d="M638.292 135.146l36 62.354-36 62.354h-72l-36-62.354 36-62.354zM287.354 68l36 62.354-36 62.354h-72l-36-62.354 36-62.354zM53.354 68l36 62.354-36 62.354h-72l-36-62.354 36-62.354z"/>
        <path stroke="#4A90E2" d="M52.354 337l36 62.354-36 62.354h-72l-36-62.354 36-62.354z"/>
        <path stroke="#1D4371" d="M755.292 68.146l36 62.354-36 62.354h-72l-36-62.354 36-62.354zM404.292 135.146l36 62.354-36 62.354h-72l-36-62.354 36-62.354zM872.292 135.146l36 62.354-36 62.354h-72l-36-62.354 36-62.354zM1338.354 270l36 62.354-36 62.354h-72l-36-62.354 36-62.354zM1106.292 1.146l36 62.354-36 62.354h-72l-36-62.354 36-62.354zM872.292 1.146l36 62.354-36 62.354h-72l-36-62.354 36-62.354zM521.292 68.146l36 62.354-36 62.354h-72l-36-62.354 36-62.354zM989.292 68.146l36 62.354-36 62.354h-72l-36-62.354 36-62.354zM287.292 203.146l36 62.354-36 62.354h-72l-36-62.354 36-62.354z"/>
        <path stroke="#4A90E2" d="M286.292 472.146l36 62.354-36 62.354h-72l-36-62.354 36-62.354z"/>
        <path stroke="#1D4371" d="M52.354 201.146l36 62.354-36 62.354h-72l-36-62.354 36-62.354zM755.292 203.146l36 62.354-36 62.354h-72l-36-62.354 36-62.354zM169.354 270l36 62.354-36 62.354h-72l-36-62.354 36-62.354zM872.292 270.146l36 62.354-36 62.354h-72l-36-62.354 36-62.354zM1106.292 136.146l36 62.354-36 62.354h-72l-36-62.354 36-62.354z"/>
        <path stroke="#4A90E2" d="M1456.354 202l36 62.354-36 62.354h-72l-36-62.354 36-62.354zM1456.354 474l36 62.354-36 62.354h-72l-36-62.354 36-62.354zM1222.354 338l36 62.354-36 62.354h-72l-36-62.354 36-62.354zM1222.354 473l36 62.354-36 62.354h-72l-36-62.354 36-62.354z"/>
        <path stroke="#1D4371" d="M521.292 203.146l36 62.354-36 62.354h-72l-36-62.354 36-62.354zM989.292 203.146l36 62.354-36 62.354h-72l-36-62.354 36-62.354zM1455.354 338l36 62.354-36 62.354h-72l-36-62.354 36-62.354zM1222.354 203.146l36 62.354-36 62.354h-72l-36-62.354 36-62.354z"/>
        <g transform="rotate(30 1409.81 65.986)">
            <use fill="#000" filter="url(#c)" xlink:href="#d"/>
            <use fill="#1D4371" stroke="#4A90E2" stroke-width=".574" xlink:href="#d"/>
        </g>
        <path fill="#4A90E2" fill-rule="nonzero" d="M1306.586 196.414a2 2 0 1 0 2.828-2.828 2 2 0 0 0-2.828 2.828z"/>
        <path fill="#4A90E2" fill-rule="nonzero" d="M1318.788 186.111l-.17-.72-.72-.173c-.412-.1-1.159-.218-2.398-.218-2.344 0-5.287.428-7.865 1.145-1.414.391-2.676.853-3.75 1.372-1.113.536-2.02 1.141-2.63 1.75-.555.556-1.282 1.657-2.163 3.274-.204.375-.415.777-.632 1.205-1.785.509-3.908 1.764-4.806 2.33-2.035 1.275-3.686 2.61-4.41 3.568a1.207 1.207 0 0 0 .53 1.85c.224.088.468.178.726.278 1.172.445 2.605.984 3.717 1.53l-.003.007 6.449 6.453c.546 1.114 1.092 2.557 1.54 3.739.097.257.191.502.278.726a1.202 1.202 0 0 0 1.125.773c.258 0 .516-.084.727-.244.958-.723 2.294-2.373 3.57-4.408.562-.9 1.818-3.016 2.333-4.804.436-.22.847-.435 1.23-.642 1.627-.884 2.728-1.613 3.277-2.17 1.574-1.572 2.967-4.95 3.73-9.033.332-1.78.52-3.591.526-5.098.01-1.281-.107-2.061-.21-2.49zm-22.127 11.424c-.572 1.275-1.095 2.5-1.527 3.531-.85-.408-1.821-.797-2.735-1.151a24.827 24.827 0 0 1 2.538-1.798 25.193 25.193 0 0 1 1.972-1.124c-.084.177-.167.358-.248.542zm9.199 11.53a25.592 25.592 0 0 1-1.798 2.538 40.242 40.242 0 0 0-1.149-2.732c1.035-.431 2.264-.957 3.553-1.536.174-.08.348-.157.519-.234a28.195 28.195 0 0 1-1.125 1.965zm10.732-20.48c-.007 1.369-.178 3.026-.486 4.669-.335 1.787-.81 3.47-1.38 4.877-.528 1.308-1.128 2.34-1.687 2.895l-.007.007c-.134.137-.73.666-2.719 1.747-1.299.703-2.926 1.496-4.842 2.36a159.04 159.04 0 0 1-4.212 1.81l-4.206-4.217a144.67 144.67 0 0 1 1.808-4.21c.868-1.925 1.661-3.552 2.358-4.837 1.075-1.975 1.61-2.58 1.748-2.718.412-.412 1.111-.867 1.972-1.282.944-.455 2.07-.867 3.345-1.218 2.38-.666 5.08-1.061 7.22-1.061.432 0 .776.016 1.051.04.023.294.04.67.037 1.138zm-23.534 19.433c-1.309 0-2.414.867-2.772 2.062l-1.26 4.157a.58.58 0 0 0 .72.723l4.153-1.262a2.906 2.906 0 0 0 2.056-2.778 2.898 2.898 0 0 0-2.897-2.902z"/>
    </g>
</svg>
